<mxfile host="" modified="2020-08-04T08:30:49.783Z" agent="5.0 (Macintosh; Intel Mac OS X 10_15_5) AppleWebKit/537.36 (KHTML, like Gecko) Code/1.44.2 Chrome/78.0.3904.130 Electron/7.1.11 Safari/537.36" etag="hdRCaRcqR9JGLv4RgRJ2" version="13.1.3">
    <diagram id="6hGFLwfOUW9BJ-s0fimq" name="Page-1">
        <mxGraphModel dx="871" dy="1398" grid="1" gridSize="10" guides="1" tooltips="1" connect="1" arrows="1" fold="1" page="1" pageScale="1" pageWidth="827" pageHeight="1169" math="0" shadow="0">
            <root>
                <mxCell id="0"/>
                <mxCell id="1" parent="0"/>
                <mxCell id="55" value="" style="edgeStyle=orthogonalEdgeStyle;rounded=0;orthogonalLoop=1;jettySize=auto;html=1;fontSize=17;" parent="1" source="2" target="54" edge="1">
                    <mxGeometry relative="1" as="geometry"/>
                </mxCell>
                <mxCell id="2" value="App.jsx" style="whiteSpace=wrap;html=1;aspect=fixed;" parent="1" vertex="1">
                    <mxGeometry x="366" y="230" width="80" height="80" as="geometry"/>
                </mxCell>
                <mxCell id="54" value="index.js" style="whiteSpace=wrap;html=1;aspect=fixed;" parent="1" vertex="1">
                    <mxGeometry x="366" y="70" width="80" height="80" as="geometry"/>
                </mxCell>
                <mxCell id="8" value="&lt;font style=&quot;font-size: 17px&quot;&gt;components&lt;br&gt;index.js&lt;/font&gt;" style="whiteSpace=wrap;html=1;aspect=fixed;" parent="1" vertex="1">
                    <mxGeometry x="310" y="500" width="190" height="190" as="geometry"/>
                </mxCell>
                <mxCell id="3" value="コンポーネント設計" style="text;html=1;align=center;verticalAlign=middle;resizable=0;points=[];autosize=1;fontSize=17;" parent="1" vertex="1">
                    <mxGeometry x="310" y="10" width="170" height="30" as="geometry"/>
                </mxCell>
                <mxCell id="22" value="entry point" style="text;html=1;align=center;verticalAlign=middle;resizable=0;points=[];autosize=1;fontSize=17;" parent="1" vertex="1">
                    <mxGeometry x="361" y="350" width="90" height="30" as="geometry"/>
                </mxCell>
                <mxCell id="25" value="form/&lt;br&gt;index.js" style="whiteSpace=wrap;html=1;aspect=fixed;fontSize=17;align=center;" parent="1" vertex="1">
                    <mxGeometry x="680" y="555" width="80" height="80" as="geometry"/>
                </mxCell>
                <mxCell id="30" value="Form/&lt;br&gt;FormDialog.jsx" style="whiteSpace=wrap;html=1;aspect=fixed;fontSize=17;align=center;" parent="1" vertex="1">
                    <mxGeometry x="560" y="757" width="120" height="120" as="geometry"/>
                </mxCell>
                <mxCell id="31" value="Form/&lt;br&gt;TextInput.js" style="whiteSpace=wrap;html=1;aspect=fixed;fontSize=17;align=center;" parent="1" vertex="1">
                    <mxGeometry x="760" y="760" width="117" height="117" as="geometry"/>
                </mxCell>
                <mxCell id="36" value="" style="endArrow=classic;html=1;fontSize=17;entryX=0;entryY=1;entryDx=0;entryDy=0;exitX=0.5;exitY=0;exitDx=0;exitDy=0;" parent="1" source="30" target="25" edge="1">
                    <mxGeometry width="50" height="50" relative="1" as="geometry">
                        <mxPoint x="440" y="800" as="sourcePoint"/>
                        <mxPoint x="490" y="750" as="targetPoint"/>
                    </mxGeometry>
                </mxCell>
                <mxCell id="37" value="" style="endArrow=classic;html=1;fontSize=17;entryX=1;entryY=1;entryDx=0;entryDy=0;exitX=0.5;exitY=0;exitDx=0;exitDy=0;" parent="1" source="31" target="25" edge="1">
                    <mxGeometry width="50" height="50" relative="1" as="geometry">
                        <mxPoint x="440" y="800" as="sourcePoint"/>
                        <mxPoint x="490" y="750" as="targetPoint"/>
                    </mxGeometry>
                </mxCell>
                <mxCell id="42" value="Chat.jsx" style="rounded=0;whiteSpace=wrap;html=1;fontSize=17;align=center;" parent="1" vertex="1">
                    <mxGeometry x="230" y="940" width="120" height="60" as="geometry"/>
                </mxCell>
                <mxCell id="43" value="components&lt;br&gt;&amp;nbsp;- Answeer.jsx&lt;br&gt;&amp;nbsp;- AnswersList.jsx&lt;br&gt;&amp;nbsp;- Chat.jsx&lt;br&gt;&amp;nbsp;- Chats.jsx&lt;br&gt;&amp;nbsp;- Loading.js&lt;br&gt;&amp;nbsp;- index.js&lt;br&gt;form&lt;br&gt;&amp;nbsp;- FormDialog.jsx&lt;br&gt;&amp;nbsp;- TextInput.js&lt;br&gt;&amp;nbsp;- index.js" style="text;html=1;align=left;verticalAlign=middle;resizable=0;points=[];autosize=1;fontSize=17;" parent="1" vertex="1">
                    <mxGeometry x="90" y="500" width="150" height="230" as="geometry"/>
                </mxCell>
                <mxCell id="44" value="Answer.jsx" style="rounded=0;whiteSpace=wrap;html=1;fontSize=17;align=center;" parent="1" vertex="1">
                    <mxGeometry x="70" y="940" width="120" height="60" as="geometry"/>
                </mxCell>
                <mxCell id="45" value="AnswersList.jsx" style="rounded=0;whiteSpace=wrap;html=1;fontSize=17;align=center;" parent="1" vertex="1">
                    <mxGeometry x="70" y="800" width="120" height="60" as="geometry"/>
                </mxCell>
                <mxCell id="46" value="Loading.jsx" style="rounded=0;whiteSpace=wrap;html=1;fontSize=17;align=center;" parent="1" vertex="1">
                    <mxGeometry x="390" y="800" width="120" height="60" as="geometry"/>
                </mxCell>
                <mxCell id="47" value="Chats.jsx" style="rounded=0;whiteSpace=wrap;html=1;fontSize=17;align=center;" parent="1" vertex="1">
                    <mxGeometry x="230" y="800" width="120" height="60" as="geometry"/>
                </mxCell>
                <mxCell id="48" value="" style="endArrow=classic;html=1;fontSize=17;exitX=0.5;exitY=0;exitDx=0;exitDy=0;entryX=0.5;entryY=1;entryDx=0;entryDy=0;" parent="1" source="44" target="45" edge="1">
                    <mxGeometry width="50" height="50" relative="1" as="geometry">
                        <mxPoint x="400" y="630" as="sourcePoint"/>
                        <mxPoint x="450" y="580" as="targetPoint"/>
                    </mxGeometry>
                </mxCell>
                <mxCell id="49" value="" style="endArrow=classic;html=1;fontSize=17;exitX=0.5;exitY=0;exitDx=0;exitDy=0;entryX=0.5;entryY=1;entryDx=0;entryDy=0;" parent="1" source="42" target="47" edge="1">
                    <mxGeometry width="50" height="50" relative="1" as="geometry">
                        <mxPoint x="400" y="630" as="sourcePoint"/>
                        <mxPoint x="450" y="580" as="targetPoint"/>
                    </mxGeometry>
                </mxCell>
                <mxCell id="52" value="" style="endArrow=classic;html=1;fontSize=17;exitX=0;exitY=0;exitDx=0;exitDy=0;entryX=1;entryY=1;entryDx=0;entryDy=0;" parent="1" source="26" target="2" edge="1">
                    <mxGeometry width="50" height="50" relative="1" as="geometry">
                        <mxPoint x="400" y="600" as="sourcePoint"/>
                        <mxPoint x="450" y="550" as="targetPoint"/>
                    </mxGeometry>
                </mxCell>
                <mxCell id="26" value="entry point" style="text;html=1;align=center;verticalAlign=middle;resizable=0;points=[];autosize=1;fontSize=17;" parent="1" vertex="1">
                    <mxGeometry x="530" y="440" width="90" height="30" as="geometry"/>
                </mxCell>
                <mxCell id="53" value="" style="endArrow=classic;html=1;fontSize=17;exitX=0;exitY=0;exitDx=0;exitDy=0;entryX=1;entryY=1;entryDx=0;entryDy=0;" parent="1" source="25" target="26" edge="1">
                    <mxGeometry width="50" height="50" relative="1" as="geometry">
                        <mxPoint x="680" y="555" as="sourcePoint"/>
                        <mxPoint x="446" y="200" as="targetPoint"/>
                    </mxGeometry>
                </mxCell>
                <mxCell id="56" value="" style="endArrow=none;html=1;fontSize=17;" parent="1" edge="1">
                    <mxGeometry width="50" height="50" relative="1" as="geometry">
                        <mxPoint x="40" y="760" as="sourcePoint"/>
                        <mxPoint x="540" y="760" as="targetPoint"/>
                    </mxGeometry>
                </mxCell>
                <mxCell id="57" value="" style="endArrow=classic;html=1;fontSize=17;entryX=0.468;entryY=1.016;entryDx=0;entryDy=0;entryPerimeter=0;" parent="1" target="8" edge="1">
                    <mxGeometry width="50" height="50" relative="1" as="geometry">
                        <mxPoint x="320" y="760" as="sourcePoint"/>
                        <mxPoint x="450" y="460" as="targetPoint"/>
                    </mxGeometry>
                </mxCell>
                <mxCell id="24" value="AnswersList.jsx&lt;br&gt;chats.jsx&lt;br&gt;Loading.jsx" style="text;html=1;align=left;verticalAlign=middle;resizable=0;points=[];autosize=1;fontSize=17;" parent="1" vertex="1">
                    <mxGeometry x="350" y="400" width="130" height="70" as="geometry"/>
                </mxCell>
                <mxCell id="59" value="" style="endArrow=classic;html=1;fontSize=17;exitX=0.5;exitY=0;exitDx=0;exitDy=0;entryX=0.5;entryY=1;entryDx=0;entryDy=0;" parent="1" source="8" target="2" edge="1">
                    <mxGeometry width="50" height="50" relative="1" as="geometry">
                        <mxPoint x="420" y="520" as="sourcePoint"/>
                        <mxPoint x="470" y="470" as="targetPoint"/>
                    </mxGeometry>
                </mxCell>
                <mxCell id="60" value="" style="endArrow=none;html=1;fontSize=17;" parent="1" edge="1">
                    <mxGeometry width="50" height="50" relative="1" as="geometry">
                        <mxPoint x="40" y="1040" as="sourcePoint"/>
                        <mxPoint x="540" y="1040" as="targetPoint"/>
                    </mxGeometry>
                </mxCell>
                <mxCell id="61" value="" style="endArrow=none;html=1;fontSize=17;" parent="1" edge="1">
                    <mxGeometry width="50" height="50" relative="1" as="geometry">
                        <mxPoint x="40" y="1037" as="sourcePoint"/>
                        <mxPoint x="40" y="757" as="targetPoint"/>
                    </mxGeometry>
                </mxCell>
                <mxCell id="62" value="" style="endArrow=none;html=1;fontSize=17;" parent="1" edge="1">
                    <mxGeometry width="50" height="50" relative="1" as="geometry">
                        <mxPoint x="540" y="1040" as="sourcePoint"/>
                        <mxPoint x="540" y="760" as="targetPoint"/>
                    </mxGeometry>
                </mxCell>
            </root>
        </mxGraphModel>
    </diagram>
</mxfile>